<svg viewBox="0 0 75 30" fill="none" xmlns="http://www.w3.org/2000/svg">
    <path d="M10.6222 29.4394C10.3793 29.9355 9.78035 30.1407 9.28432 29.8978L1.20117 25.9402C0.705154 25.6974 0.499924 25.0984 0.742783 24.6024C0.985641 24.1063 1.58463 23.9011 2.08064 24.144L9.26566 27.6618L12.7835 20.4768C13.0264 19.9808 13.6254 19.7756 14.1214 20.0184C14.6174 20.2613 14.8227 20.8603 14.5798 21.3563L10.6222 29.4394ZM9.72406 14.4999L8.74913 14.2774L9.72406 14.4999ZM74 7.5C73.7303 8.46295 73.7303 8.46294 73.73 8.46287C73.7296 8.46276 73.7292 8.46262 73.7284 8.46241C73.7268 8.46198 73.7244 8.4613 73.7211 8.46038C73.7145 8.45853 73.7043 8.4557 73.6906 8.45192C73.6633 8.44436 73.622 8.433 73.5673 8.41804C73.4578 8.38811 73.2942 8.34381 73.0801 8.28686C72.6518 8.17296 72.0211 8.00846 71.2156 7.80715C69.6045 7.40447 67.2946 6.85471 64.5052 6.26789C58.9226 5.09345 51.437 3.77432 43.7963 3.1852C36.1376 2.59468 28.4086 2.74519 22.2994 4.45585C16.2006 6.16358 11.9245 9.35275 10.699 14.7224L9.72406 14.4999L8.74913 14.2774C10.2052 7.89795 15.3043 4.33762 21.7601 2.52993C28.2054 0.725166 36.2102 0.594339 43.9501 1.19111C51.708 1.78928 59.2858 3.12607 64.9169 4.31073C67.7344 4.90347 70.069 5.45905 71.7006 5.86683C72.5165 6.07074 73.1568 6.23775 73.5941 6.35405C73.8127 6.41219 73.9806 6.45767 74.0944 6.48874C74.1513 6.50428 74.1946 6.51622 74.2239 6.52434C74.2386 6.5284 74.2498 6.53151 74.2574 6.53364C74.2613 6.5347 74.2642 6.53552 74.2662 6.53609C74.2673 6.53637 74.2681 6.53661 74.2686 6.53676C74.2693 6.53693 74.2697 6.53705 74 7.5ZM9.72406 14.4999L10.699 14.7224C9.73292 18.9552 9.73518 22.4708 9.97445 24.9159C10.0941 26.1386 10.273 27.0933 10.4196 27.7353C10.4929 28.0562 10.5581 28.2988 10.6037 28.4574C10.6265 28.5368 10.6444 28.5951 10.6559 28.6317C10.6617 28.65 10.6659 28.6628 10.6683 28.6702C10.6695 28.6738 10.6703 28.6761 10.6706 28.677C10.6707 28.6775 10.6708 28.6776 10.6707 28.6774C10.6706 28.6772 10.6706 28.677 10.6705 28.6767C10.6704 28.6766 10.6703 28.6763 10.6703 28.6762C10.6702 28.6759 10.6701 28.6756 9.72406 28.9997C8.77805 29.3238 8.77792 29.3235 8.77779 29.3231C8.77773 29.3229 8.77758 29.3225 8.77747 29.3222C8.77725 29.3215 8.777 29.3208 8.77672 29.3199C8.77615 29.3183 8.77547 29.3163 8.77468 29.3139C8.77309 29.3092 8.77104 29.303 8.76855 29.2954C8.76357 29.2803 8.75685 29.2596 8.74856 29.2333C8.73197 29.1807 8.70912 29.106 8.68148 29.0098C8.62621 28.8174 8.55172 28.5391 8.46984 28.1806C8.3061 27.4636 8.11259 26.4251 7.98396 25.1107C7.72667 22.4815 7.72893 18.7473 8.74913 14.2774L9.72406 14.4999Z" fill="url(#paint0_linear_7_239)"/>
    <defs>
        <linearGradient id="paint0_linear_7_239" x1="28" y1="5" x2="-13" y2="5" gradientUnits="userSpaceOnUse">
            <stop stop-color="#FF3C3C"/>
            <stop offset="0.5" stop-color="#AC1414"/>
            <stop offset="1" stop-color="#FF3C3C"/>
        </linearGradient>
    </defs>
</svg>
